<svg width="739" height="521" viewBox="0 0 739 521" fill="none" xmlns="http://www.w3.org/2000/svg">
<path d="M176.994 89.1071L162.508 205.471L166.462 205.134C176.678 204.262 185.845 200.822 193.963 194.813C202.053 188.474 208.878 180.914 214.437 172.133C219.967 163.022 223.945 153.213 226.369 142.707C229.095 131.842 230.037 121.461 229.194 111.565C228.632 104.968 227.11 98.7851 224.627 93.0163C222.445 86.8896 218.851 81.714 213.844 77.4897C208.837 73.2653 202.102 70.1852 193.639 68.2494C185.478 65.9556 175.136 65.343 162.613 66.4117C145.477 67.8741 129.569 72.0559 114.888 78.9572C100.179 85.5286 87.5069 94.5843 76.8722 106.124C66.539 117.306 58.5444 130.614 52.8884 146.049C47.562 161.455 45.6995 178.559 47.3009 197.361C47.8066 203.299 48.5575 208.218 49.5537 212.12C50.5218 215.693 51.4478 218.77 52.3316 221.353C53.1874 223.606 54.015 225.529 54.8146 227.122C55.9155 228.357 56.6729 229.455 57.0868 230.416C40.61 231.823 27.3124 229.635 17.194 223.853C7.37704 217.713 1.75213 206.232 0.3193 189.409C-1.14163 172.256 2.41071 155.506 10.9763 139.159C19.5138 122.482 31.5012 107.338 46.9384 93.727C62.7052 80.0879 80.9894 68.7259 101.791 59.6409C122.593 50.556 144.363 45.0433 167.101 43.1028C184.895 41.5842 200.745 42.5574 214.649 46.0224C228.525 49.1576 240.235 54.139 249.779 60.9665C259.624 67.436 267.096 75.271 272.195 84.4714C277.623 93.6437 280.773 103.343 281.643 113.568C282.908 128.412 279.601 144.144 271.722 160.765C263.816 177.056 251.551 190.895 234.929 202.281C248.749 204.757 258.345 210.251 263.717 218.763C269.39 226.918 272.719 236.768 273.702 248.313C274.573 258.539 274.182 269.536 272.529 281.307C271.205 293.049 269.374 304.668 267.034 316.164C264.995 327.303 263.093 338.098 261.327 348.548C259.892 358.971 259.483 367.811 260.101 375.068C260.803 383.314 263.055 390.266 266.856 395.922C270.987 401.55 276.116 405.265 282.244 407.068C271.952 410.937 262.743 413.883 254.617 415.905C246.82 417.899 239.956 419.15 234.025 419.656C226.116 420.331 219.441 419.904 214 418.375C208.888 416.817 204.723 414.681 201.504 411.965C198.587 408.891 196.466 405.418 195.14 401.544C193.814 397.67 192.983 393.754 192.646 389.795C191.943 381.549 192.447 371.87 194.156 360.76C196.166 349.291 198.149 337.493 200.103 325.365C202.387 313.209 204.356 301.246 206.009 289.475C207.991 277.677 208.575 266.995 207.76 257.429C206.917 247.533 204.087 239.634 199.269 233.733C194.452 227.831 186.605 225.344 175.731 226.272C173.095 226.497 170.472 226.887 167.864 227.442C165.256 227.997 162.332 228.744 159.093 229.685L135.436 419.597L64.2569 425.671L104.68 105.246L176.994 89.1071Z" fill="#33271F"/>
<path d="M339.299 86.7189C338.371 75.8335 341.374 66.274 348.308 58.0403C355.213 49.4768 364.102 44.731 374.977 43.803C385.852 42.8749 395.416 46.0458 403.669 53.3157C412.224 60.2276 416.966 69.1262 417.893 80.0117C418.82 90.8971 415.652 100.471 408.389 108.732C401.456 116.966 392.552 121.547 381.678 122.475C370.803 123.403 361.253 120.397 353.027 113.457C344.802 106.517 340.226 97.6044 339.299 86.7189ZM406.197 147.296L384.936 318.562C384.095 324.282 383.885 329.617 384.307 334.564C384.897 341.492 386.952 346.134 390.472 348.492C393.992 350.849 399.212 351.733 406.133 351.142C415.689 350.327 424.235 345.444 431.771 336.494C439.307 327.545 444.354 316.648 446.911 303.804L467.672 302.032C462.466 322.744 455.769 339.597 447.581 352.589C439.366 365.251 430.76 375.289 421.766 382.702C412.743 389.785 403.703 394.709 394.644 397.476C385.915 400.215 378.255 401.865 371.665 402.427C356.836 403.693 343.92 400.144 332.918 391.779C321.887 383.085 315.487 368.347 313.717 347.566C312.959 338.66 313.364 327.827 314.932 315.067L335.017 153.37L406.197 147.296Z" fill="#33271F"/>
<path d="M420.306 519.883C412.727 520.53 405.365 519.829 398.22 517.781C391.103 516.063 384.697 512.954 379.003 508.456C373.008 504.316 368.082 499.089 364.224 492.772C360.367 486.456 358.101 479.34 357.427 471.423C356.472 460.208 357.964 450.445 361.903 442.135C365.513 433.853 371.033 426.57 378.464 420.288C385.594 414.363 394.263 408.972 404.471 404.113C414.349 399.283 425.066 394.548 436.62 389.907L471.873 102.318C473.981 84.1961 477.867 69.4112 483.53 57.9633C489.523 46.4873 496.386 37.429 504.119 30.7884C512.153 23.7898 520.534 18.9213 529.263 16.1828C537.964 13.1145 546.434 11.2288 554.672 10.5257C565.876 9.56957 576.495 11.4875 586.53 16.2796C596.893 21.0436 604.789 28.0117 610.217 37.184C619.036 23.8056 629.373 14.6169 641.229 9.61801C653.056 4.28928 664.407 1.1609 675.282 0.232852C682.861 -0.413969 690.223 0.286773 697.368 2.33508C704.485 4.05354 710.891 7.16176 716.585 11.6597C722.58 15.7997 727.506 21.0277 731.364 27.3437C735.221 33.6597 737.487 40.7761 738.161 48.6928C738.807 56.2796 738.889 63.0839 738.406 69.1058L715.174 71.0885C715.278 68.4214 715.247 66.0983 715.078 64.1192C715.239 62.1119 715.221 59.9537 715.024 57.6447C714.547 52.037 712.218 48.0825 708.039 45.7811C704.162 43.1217 699.751 42.0029 694.808 42.4247C692.172 42.6497 689.248 43.3976 686.037 44.6684C683.156 45.9111 680.194 48.1574 677.151 51.4074C674.41 54.2994 671.946 58.4968 669.759 63.9996C667.544 69.1725 665.8 75.9666 664.525 84.3819L659.083 125.714L708.513 121.496L705.75 141.667L656.814 145.843L623.715 417.798C621.607 435.92 617.557 450.719 611.564 462.195C605.9 473.643 599.037 482.701 590.975 489.37C583.27 496.34 575.054 501.195 566.325 503.933C557.624 507.002 549.154 508.887 540.916 509.59C526.746 510.8 514.973 508.98 505.598 504.132C496.553 499.255 489.645 492.203 484.876 482.974C476.387 496.325 466.215 505.499 454.359 510.498C442.532 515.827 431.181 518.955 420.306 519.883ZM510.038 369.188L560.192 355.937L585.14 151.96L536.204 156.136L510.038 369.188ZM496.284 459.075C498.928 462.836 502.777 465.166 507.833 466.064C513.218 466.933 519.206 467.087 525.796 466.524C531.069 466.074 536.103 462.82 540.898 456.763C546.05 451.007 549.642 440.566 551.673 425.441L558.732 368.023L508.62 381.769L503.105 428.091C502.264 433.811 501.231 439.216 500.005 444.304C498.807 449.723 497.566 454.646 496.284 459.075ZM594.415 67.9376C593.937 62.3299 591.609 58.3754 587.429 56.074C583.552 53.4146 579.141 52.2958 574.198 52.7176C571.562 52.9426 568.638 53.6905 565.427 54.9613C562.546 56.204 559.584 58.4503 556.541 61.7003C553.8 64.5923 551.336 68.7897 549.149 74.2925C546.935 79.4654 545.19 86.2594 543.915 94.6747L538.473 136.007L587.409 131.831L594.353 78.9074C594.844 76.872 595.019 75.0296 594.878 73.3803C594.738 71.731 594.583 69.9167 594.415 67.9376ZM386.989 461.923C387.299 465.552 389.585 469.011 393.848 472.302C397.782 475.622 402.55 477.042 408.152 476.564C413.425 476.114 418.623 472.846 423.748 466.76C428.571 461.033 431.998 450.606 434.029 435.481L437.516 406.277C429.832 409.591 422.821 413.013 416.484 416.545C410.174 420.406 404.716 424.526 400.11 428.907C395.504 433.287 392.108 438.228 389.921 443.731C387.405 449.262 386.428 455.326 386.989 461.923Z" fill="#33271F"/>
</svg>
