<svg width="96" height="68" viewBox="0 0 96 68" fill="none" xmlns="http://www.w3.org/2000/svg">
<path d="M22.8335 11.4841L20.9647 26.481L21.4748 26.4376C22.7927 26.3252 23.9753 25.8818 25.0226 25.1074C26.0664 24.2904 26.9468 23.3161 27.6639 22.1844C28.3774 21.0102 28.8905 19.7461 29.2033 18.392C29.555 16.9917 29.6764 15.6539 29.5677 14.3785C29.4952 13.5282 29.2988 12.7314 28.9785 11.9879C28.6971 11.1983 28.2334 10.5313 27.5875 9.98684C26.9415 9.4424 26.0727 9.04544 24.9809 8.79595C23.928 8.50033 22.5938 8.42138 20.9783 8.55911C18.7676 8.74758 16.7153 9.28653 14.8214 10.176C12.9238 11.0229 11.289 12.19 9.91708 13.6772C8.58402 15.1183 7.55265 16.8335 6.82299 18.8227C6.13584 20.8082 5.89556 23.0126 6.10216 25.4358C6.1674 26.201 6.26428 26.8351 6.39279 27.338C6.51769 27.7984 6.63715 28.195 6.75117 28.5278C6.86156 28.8182 6.96833 29.066 7.07148 29.2713C7.21351 29.4305 7.31123 29.572 7.36461 29.696C5.23899 29.8772 3.5235 29.5952 2.21815 28.8501C0.951692 28.0588 0.226038 26.5791 0.041192 24.411C-0.147278 22.2003 0.310999 20.0416 1.41602 17.9348C2.51742 15.7854 4.06388 13.8337 6.0554 12.0795C8.08943 10.3217 10.4482 8.85736 13.1318 7.68649C15.8154 6.51563 18.6238 5.80516 21.5572 5.55507C23.8529 5.35935 25.8976 5.48478 27.6913 5.93135C29.4815 6.33541 30.9921 6.97741 32.2233 7.85733C33.4934 8.69112 34.4573 9.70089 35.1151 10.8866C35.8154 12.0688 36.2217 13.3188 36.3341 14.6366C36.4972 16.5497 36.0705 18.5773 35.0542 20.7194C34.0342 22.8189 32.4519 24.6024 30.3075 26.0699C32.0904 26.3889 33.3284 27.097 34.0214 28.1941C34.7533 29.2451 35.1827 30.5145 35.3096 32.0024C35.4219 33.3203 35.3715 34.7377 35.1582 36.2547C34.9875 37.768 34.7512 39.2655 34.4493 40.7471C34.1863 42.1827 33.9409 43.5739 33.7132 44.9207C33.5279 46.264 33.4752 47.4033 33.5549 48.3385C33.6455 49.4014 33.936 50.2972 34.4264 51.0262C34.9593 51.7516 35.621 52.2304 36.4116 52.4628C35.0838 52.9614 33.8958 53.341 32.8475 53.6017C31.8417 53.8587 30.9561 54.0198 30.1909 54.0851C29.1706 54.1721 28.3095 54.117 27.6076 53.9199C26.9481 53.7192 26.4108 53.4439 25.9956 53.0939C25.6192 52.6978 25.3455 52.25 25.1745 51.7508C25.0035 51.2515 24.8962 50.7468 24.8527 50.2366C24.7621 49.1738 24.827 47.9265 25.0475 46.4946C25.3069 45.0165 25.5627 43.496 25.8148 41.9329C26.1094 40.3662 26.3634 38.8244 26.5766 37.3075C26.8324 35.7869 26.9077 34.4102 26.8026 33.1773C26.6939 31.902 26.3287 30.884 25.7072 30.1233C25.0857 29.3627 24.0735 29.0422 22.6706 29.1618C22.3305 29.1908 21.9922 29.2411 21.6557 29.3126C21.3192 29.3841 20.9421 29.4805 20.5242 29.6017L17.4723 54.0775L8.28961 54.8603L13.5044 13.5641L22.8335 11.4841Z" fill="#3ED880"/>
<path d="M43.772 11.1763C43.6524 9.77339 44.0398 8.54136 44.9342 7.48021C45.825 6.37655 46.9719 5.76491 48.3748 5.64531C49.7777 5.5257 51.0116 5.93437 52.0763 6.8713C53.18 7.7621 53.7916 8.90896 53.9112 10.3119C54.0308 11.7148 53.6222 12.9486 52.6852 14.0134C51.7908 15.0745 50.6421 15.6649 49.2392 15.7845C47.8363 15.9041 46.6043 15.5167 45.5431 14.6223C44.482 13.7279 43.8916 12.5792 43.772 11.1763ZM52.4024 18.9834L49.6595 41.0562C49.5511 41.7934 49.524 42.4808 49.5784 43.1185C49.6545 44.0113 49.9196 44.6096 50.3738 44.9134C50.8279 45.2173 51.5013 45.3312 52.3941 45.2551C53.6269 45.1499 54.7295 44.5207 55.7017 43.3673C56.6739 42.2138 57.3249 40.8095 57.6548 39.1541L60.3331 38.9258C59.6614 41.5951 58.7975 43.7671 57.7412 45.4415C56.6814 47.0734 55.5713 48.3671 54.4109 49.3224C53.2469 50.2353 52.0806 50.87 50.912 51.2265C49.7859 51.5795 48.7977 51.7922 47.9475 51.8647C46.0344 52.0278 44.3682 51.5703 42.9488 50.4923C41.5258 49.3718 40.7002 47.4724 40.4718 44.7942C40.374 43.6463 40.4262 42.2502 40.6286 40.6057L43.2197 19.7663L52.4024 18.9834Z" fill="#3ED880"/>
<path d="M54.2226 67.0023C53.2448 67.0857 52.295 66.9954 51.3733 66.7314C50.4551 66.5099 49.6288 66.1093 48.8942 65.5296C48.1208 64.9961 47.4852 64.3223 46.9876 63.5083C46.49 62.6943 46.1977 61.7771 46.1107 60.7568C45.9875 59.3114 46.18 58.0532 46.6881 56.9821C47.1538 55.9147 47.866 54.9762 48.8247 54.1665C49.7445 53.4029 50.8628 52.7081 52.1797 52.0819C53.4541 51.4594 54.8366 50.8491 56.3272 50.251L60.8751 13.1867C61.147 10.8512 61.6483 8.94568 62.3789 7.47029C63.1521 5.99126 64.0375 4.82383 65.035 3.968C66.0715 3.06602 67.1528 2.43857 68.2789 2.08564C69.4013 1.69019 70.494 1.44716 71.5568 1.35655C73.0022 1.23332 74.3721 1.48051 75.6666 2.09811C77.0036 2.71209 78.0222 3.61014 78.7225 4.79225C79.8602 3.06805 81.1937 1.88382 82.7232 1.23956C84.249 0.552801 85.7134 0.149616 87.1163 0.0300099C88.0941 -0.0533521 89.0439 0.0369592 89.9656 0.300944C90.8838 0.522419 91.7101 0.923004 92.4447 1.5027C93.2181 2.03626 93.8537 2.71004 94.3513 3.52404C94.8489 4.33805 95.1412 5.2552 95.2282 6.2755C95.3115 7.25329 95.3221 8.13023 95.2598 8.90633L92.2627 9.16185C92.2762 8.81812 92.2721 8.51872 92.2503 8.26365C92.2711 8.00495 92.2688 7.72681 92.2434 7.42922C92.1818 6.70651 91.8814 6.19685 91.3423 5.90024C90.842 5.5575 90.273 5.41331 89.6353 5.46768C89.2952 5.49667 88.9181 5.59306 88.5038 5.75684C88.1321 5.917 87.75 6.20651 87.3575 6.62536C87.0038 6.99808 86.686 7.53904 86.4039 8.24823C86.1181 8.91492 85.893 9.79054 85.7286 10.8751L85.0265 16.202L91.4034 15.6583L91.047 18.258L84.7339 18.7962L80.4638 53.8456C80.1919 56.1812 79.6693 58.0885 78.8962 59.5675C78.1655 61.0429 77.2802 62.2103 76.2401 63.0698C75.2461 63.9681 74.1861 64.5938 73.06 64.9467C71.9376 65.3422 70.8449 65.5852 69.7821 65.6758C67.9541 65.8316 66.4354 65.5971 65.2259 64.9723C64.059 64.3438 63.1679 63.4349 62.5526 62.2455C61.4575 63.9661 60.1452 65.1485 58.6157 65.7928C57.0899 66.4795 55.6255 66.8827 54.2226 67.0023ZM65.7986 47.5808L72.2689 45.873L75.4874 19.5845L69.1743 20.1228L65.7986 47.5808ZM64.0243 59.1654C64.3653 59.6502 64.862 59.9504 65.5142 60.0661C66.2089 60.1781 66.9813 60.1979 67.8316 60.1254C68.5118 60.0674 69.1612 59.6481 69.7798 58.8674C70.4445 58.1256 70.9079 56.78 71.1699 54.8307L72.0805 47.4306L65.6157 49.2022L64.9042 55.1722C64.7958 55.9094 64.6625 56.6059 64.5043 57.2617C64.3497 57.96 64.1897 58.5946 64.0243 59.1654ZM76.6838 8.75576C76.6222 8.03305 76.3219 7.52339 75.7827 7.22679C75.2825 6.88404 74.7135 6.73986 74.0758 6.79422C73.7357 6.82322 73.3585 6.91961 72.9443 7.08339C72.5725 7.24354 72.1904 7.53305 71.7979 7.95191C71.4443 8.32463 71.1264 8.86558 70.8443 9.57478C70.5586 10.2415 70.3335 11.1171 70.169 12.2016L69.467 17.5285L75.7801 16.9903L76.6759 10.1695C76.7392 9.90722 76.7618 9.66978 76.7437 9.45722C76.7255 9.24465 76.7056 9.01084 76.6838 8.75576ZM49.9245 59.5324C49.9644 60.0001 50.2593 60.446 50.8093 60.8701C51.3168 61.2979 51.9319 61.481 52.6546 61.4193C53.3348 61.3614 54.0055 60.9402 54.6666 60.1559C55.2888 59.4177 55.7309 58.0739 55.9929 56.1246L56.4428 52.3608C55.4515 52.7879 54.5471 53.229 53.7294 53.6841C52.9154 54.1817 52.2113 54.7128 51.6171 55.2773C51.0229 55.8418 50.5848 56.4786 50.3027 57.1878C49.9781 57.9007 49.852 58.6822 49.9245 59.5324Z" fill="#3ED880"/>
</svg>
