<svg width="44" height="44" viewBox="0 0 44 44" fill="none" xmlns="http://www.w3.org/2000/svg">
<g clip-path="url(#clip0_743_2681)">
<circle cx="22" cy="22" r="22" fill="#00FF80"/>
<path d="M32.29 7.81569C33.1911 7.73887 34.0665 7.82243 34.916 8.06569C35.7622 8.26981 36.5242 8.63885 37.2012 9.17312C37.914 9.66485 38.4994 10.2862 38.958 11.0364C39.4166 11.7866 39.6864 12.6322 39.7666 13.5725C39.8434 14.4735 39.8523 15.2822 39.7949 15.9973L37.0332 16.2327C37.0457 15.9159 37.0415 15.6396 37.0215 15.4046C37.0406 15.1661 37.039 14.9093 37.0156 14.635C36.9588 13.9692 36.6813 13.5001 36.1846 13.2268C35.7235 12.9109 35.199 12.7773 34.6113 12.8274C34.2981 12.8542 33.9508 12.9432 33.5693 13.094C33.2268 13.2416 32.8744 13.5088 32.5127 13.8948C32.1869 14.2382 31.8937 14.7365 31.6338 15.3899C31.3704 16.0043 31.1623 16.8122 31.0107 17.8118L30.3643 22.721L36.2412 22.22L35.9131 24.6155L30.0947 25.1116L27.8906 43.2005C26.0156 43.7203 24.0405 44.0003 22 44.0003C21.1093 44.0003 20.2312 43.945 19.3682 43.8421L21.5723 25.8382L15.7539 26.3342L13.7773 42.4094C10.8088 41.2123 8.16139 39.3876 6 37.0979L8.10547 19.9417C8.35608 17.7892 8.81784 16.0329 9.49121 14.6731C10.2038 13.3101 11.0201 12.2343 11.9395 11.4456C12.8946 10.6143 13.8909 10.0355 14.9287 9.71023C15.9632 9.34577 16.9707 9.12186 17.9502 9.03835C19.2821 8.92485 20.5445 9.15293 21.7373 9.72194C22.9695 10.2878 23.9083 11.1159 24.5537 12.2053C25.6022 10.6163 26.8316 9.5247 28.2412 8.93093C29.6475 8.29799 30.9971 7.92593 32.29 7.81569ZM20.2715 14.0501C19.9581 14.0768 19.6103 14.1657 19.2285 14.3167C18.8859 14.4643 18.5336 14.7315 18.1719 15.1175C17.8461 15.4609 17.5529 15.9592 17.293 16.6126C17.0297 17.2269 16.8225 18.0341 16.6709 19.0335L16.0244 23.9436L21.8428 23.4475L22.668 17.1614C22.7263 16.9196 22.7472 16.7001 22.7305 16.5042C22.7138 16.3084 22.6948 16.0926 22.6748 15.8577C22.6179 15.1918 22.3415 14.7218 21.8447 14.4485C21.3837 14.1327 20.8591 14 20.2715 14.0501Z" fill="#33271F"/>
</g>
<defs>
<clipPath id="clip0_743_2681">
<rect width="44" height="44" fill="white"/>
</clipPath>
</defs>
</svg>
