<svg width="44" height="44" viewBox="0 0 44 44" fill="none" xmlns="http://www.w3.org/2000/svg">
<g clip-path="url(#clip0_89_401)">
<circle cx="22" cy="22" r="22" fill="#3ED880"/>
<path d="M32.29 7.81619C33.1912 7.73936 34.0665 7.82291 34.916 8.06619C35.7622 8.2703 36.5242 8.63934 37.2012 9.17361C37.9139 9.66533 38.4994 10.2867 38.958 11.0369C39.4165 11.787 39.6864 12.6319 39.7666 13.572C39.8434 14.4731 39.8523 15.2816 39.7949 15.9968L37.0332 16.2322C37.0456 15.9157 37.0415 15.64 37.0215 15.4051C37.0406 15.1666 37.039 14.9098 37.0156 14.6355C36.9588 13.9696 36.6814 13.4997 36.1846 13.2263C35.7236 12.9106 35.1989 12.7778 34.6113 12.8279C34.2981 12.8547 33.9508 12.9437 33.5693 13.0945C33.2267 13.2421 32.8744 13.5093 32.5127 13.8953C32.1868 14.2388 31.8938 14.7369 31.6338 15.3904C31.3705 16.0048 31.1623 16.8118 31.0107 17.8113L30.3643 22.7215L36.2412 22.2195L35.9131 24.616L30.0947 25.1121L27.8906 43.201C26.0157 43.7208 24.0405 43.9998 22 43.9998C21.1093 43.9998 20.2312 43.9445 19.3682 43.8416L21.5723 25.8386L15.7539 26.3347L13.7773 42.4099C10.8086 41.2128 8.16148 39.3873 6 37.0974L8.10547 19.9422C8.35607 17.7897 8.81785 16.0334 9.49121 14.6736C10.2038 13.3105 11.0201 12.2348 11.9395 11.4461C12.8946 10.6148 13.8909 10.036 14.9287 9.71072C15.9632 9.34626 16.9707 9.12235 17.9502 9.03884C19.2821 8.92533 20.5444 9.15339 21.7373 9.72244C22.9695 10.2883 23.9083 11.1164 24.5537 12.2058C25.6022 10.6168 26.8317 9.5252 28.2412 8.93142C29.6475 8.29848 30.9971 7.92642 32.29 7.81619ZM20.2715 14.0506C19.9581 14.0773 19.6103 14.1662 19.2285 14.3172C18.886 14.4648 18.5335 14.732 18.1719 15.1179C17.8461 15.4614 17.5529 15.9597 17.293 16.6131C17.0297 17.2275 16.8225 18.0345 16.6709 19.034L16.0244 23.9431L21.8428 23.447L22.668 17.1609C22.7262 16.9193 22.7472 16.7005 22.7305 16.5047C22.7138 16.3088 22.6948 16.0932 22.6748 15.8582C22.618 15.1922 22.3416 14.7223 21.8447 14.449C21.3837 14.1331 20.8592 14.0005 20.2715 14.0506Z" fill="#F5F5F5"/>
</g>
<defs>
<clipPath id="clip0_89_401">
<rect width="44" height="44" fill="white"/>
</clipPath>
</defs>
</svg>
